ply
format ascii 1.0
comment Cube rotated by X:25, Y:40, Z:15 deg
element vertex 8
property float x
property float y
property float z
property float nx
property float ny
property float nz
element face 12
property list uchar int vertex_indices
end_header
-0.906963  0.720811 -1.047078 -0.493  0.419 -0.762
-1.332304 -0.528434 -0.666025 -0.643 -0.539 -0.544
 0.141703 -1.217316 -0.198305  0.223 -0.741 -0.634
 0.567044  0.031929 -0.579357  0.373  0.217 -0.902
-0.567044 -0.031929  0.579357 -0.373 -0.217  0.902
-0.992384 -1.281174  0.960409 -0.523 -0.774  0.355
 0.481622 -1.970056  1.428130  0.342 -0.976  0.264
 0.906963 -0.720811  1.047078  0.493 -0.419  0.762
3 0 2 1
3 0 3 2
3 4 5 6
3 4 6 7
3 0 1 5
3 0 5 4
3 1 2 6
3 1 6 5
3 2 3 7
3 2 7 6
3 3 0 4
3 3 4 7