ply
format ascii 1.0
comment Completely enclosed 3D mesh by connecting all parallel edges (8 faces total)
element vertex 6
property float x
property float y
property float z
property float nx
property float ny
property float nz
element face 8
property list uchar int vertex_indices
end_header
-1.0 -1.0 -0.5  0.0  0.0 -1.0
 1.0 -1.0 -0.5  0.0  0.0 -1.0
 0.0  1.0 -0.5  0.0  0.0 -1.0
-0.2 -1.0  0.5  0.0  0.0  1.0
 1.8 -1.0  0.5  0.0  0.0  1.0
 0.8  1.0  0.5  0.0  0.0  1.0
3 0 1 2
3 3 4 5
3 1 5 2
3 1 4 5
3 2 3 0
3 2 5 3
3 0 4 1
3 0 3 4