ply
format ascii 1.0
comment VCGLIB generated
element vertex 131
property float x
property float y
property float z
element face 250
property list uchar int vertex_indices
end_header
-160.5878 201.4621 -185.9611 
5.723038 -191.3428 163.3073 
-34.81203 -220.8655 184.9792 
43.31343 -165.8024 185.8314 
78.75945 -215.8297 151.3135 
-83.04005 57.82676 59.07233 
188.038 -148.6785 97.28477 
46.96595 9.169588 142.8561 
-158.9923 21.9108 -27.02321 
-33.36394 -172.4138 119.7549 
-243.8402 129.726 56.52645 
-49.66868 212.7991 -0.9726512 
-186.6585 101.8044 162.5299 
-143.1239 -78.03887 155.8408 
38.44149 -107.584 193.139 
-58.27181 -94.53823 141.992 
163.4901 10.47417 97.17524 
-72.89758 -34.31872 140.6136 
-36.0769 -78.32206 166.3173 
94.76144 -56.29721 177.1129 
-135.9453 139.784 113.468 
17.52492 -43.4141 181.8805 
35.48661 -25.69921 146.4238 
-86.74194 18.40362 110.8808 
120.9943 26.4471 114.3738 
-228.4204 136.3009 93.36597 
-108.2736 48.39346 117.955 
106.8453 -240.8567 145.1566 
144.8166 -198.3157 123.9794 
-12.70766 187.3981 -38.06026 
-239.9954 -48.3763 65.31718 
12.15568 198.2259 -75.51502 
167.3917 -58.45379 133.267 
225.087 -158.3746 104.0909 
109.2301 -167.5453 164.6682 
-176.5948 -9.052399 126.4431 
-140.4289 166.8192 -113.741 
169.7686 -153.9686 126.8036 
140.0619 -85.84876 157.8715 
-154.7431 30.49184 167.4805 
54.2989 15.51846 -59.10676 
197.0691 -61.92902 81.6972 
120.6226 -241.3944 -5.410245 
249.5832 -142.598 19.82345 
214.9048 -172.9113 -17.03259 
-123.6057 100.6493 98.64834 
132.6206 -197.0597 -63.04519 
244.7521 -121.3089 67.32819 
188.0647 -156.7392 -9.450145 
208.8989 -115.2361 37.94703 
146.5661 6.982179 -34.23421 
198.4485 -37.09882 22.43768 
-137.7953 208.8436 -195.9064 
-25.64568 4.376984 -59.79517 
-38.05514 28.67736 103.7724 
-178.9482 149.1746 87.06242 
-187.4891 227.6696 -164.1364 
-194.4911 128.1688 -7.376549 
49.16907 65.25056 91.60295 
-39.41301 54.284 27.06451 
-230.4136 -1.129913 25.01278 
-171.5223 187.1743 -66.87812 
-116.1005 144.3399 45.33235 
140.115 46.04242 51.35814 
-183.3368 -242.8113 32.83625 
-209.306 -3.495917 96.93268 
-49.12393 -55.81156 -72.03347 
-152.9206 143.9005 -14.45569 
-210.9503 1.918903 157.8449 
-111.0456 -151.7335 112.6538 
-100.792 -185.0874 46.347 
-83.56651 -195.6926 131.6879 
-243.9648 39.69101 150.6122 
-123.7592 -211.8976 72.1559 
-139.5547 -193.577 17.04225 
-147.0949 -201.615 128.3593 
-189.9502 127.6271 -46.09124 
-145.5607 -159.2143 -0.3005245 
-1.316769 251.6953 -63.39566 
-140.458 143.7223 6.796513 
-79.31132 -217.4327 -78.5293 
-202.61 176.8052 -93.87518 
-48.91711 -187.7053 -25.73793 
-210.5779 -111.9643 -1.655027 
-65.15854 -96.12839 -63.29189 
-247.8921 58.62416 75.05961 
-228.1297 -68.33043 3.582379 
147.6217 -103.5354 -67.86382 
-105.3177 60.18597 -13.85585 
83.08045 -34.79589 -73.97545 
186.2503 -74.38611 -32.68759 
-16.92981 -53.30395 -105.2358 
69.17474 71.00669 9.293279 
-43.06402 -246.5179 -86.31857 
-204.7072 -119.5717 76.02981 
-186.5132 -66.00626 -46.88971 
-109.8563 -247.3032 -29.0701 
-123.9013 -6.121301 -58.93927 
-167.1342 -242.3534 107.8067 
-23.32162 -197.2143 -85.53693 
-86.99234 -203.244 -29.82181 
59.29549 -180.9436 -97.33815 
126.4568 -150.5621 -82.20454 
-215.8451 67.91097 -6.456108 
-1.970913 -142.1096 -118.6916 
-165.9388 95.45094 -22.89197 
-131.3172 -115.9471 -56.57217 
-107.8569 -145.3275 -36.90864 
64.28717 -51.58759 -101.7375 
49.95488 -90.59341 -113.7662 
-34.71269 -94.3029 -119.6034 
101.2457 -242.4131 -58.52261 
-43.53261 -229.864 -54.31167 
152.3667 -242.4664 64.40874 
-171.282 -245.9842 -18.36581 
237.7845 -202.8617 49.89014 
-39.90904 -234.4464 76.62324 
151.8821 -217.0261 106.113 
101.5984 -243.1457 100.6998 
-162.9863 -134.1202 114.7054 
46.53493 -242.8664 156.0892 
-79.35324 -241.2847 147.5359 
32.70002 -231.4404 47.95681 
-205.6234 -86.70435 115.9119 
75.21361 -226.4397 114.2018 
-173.4388 -157.9207 45.48063 
-119.3966 -241.7976 164.1088 
-118.0094 107.8375 3.982194 
8.97345 164.2261 -24.55887 
-162.5737 127.3098 -122.9561 
-106.9374 109.352 37.59865 
3 65 60 30 
3 85 65 72 
3 65 35 68 
3 72 65 68 
3 65 123 35 
3 123 65 30 
3 85 72 25 
3 94 30 86 
3 94 86 83 
3 30 94 123 
3 123 13 35 
3 39 68 35 
3 123 119 13 
3 119 123 94 
3 72 12 25 
3 12 68 39 
3 68 12 72 
3 125 94 83 
3 125 119 94 
3 69 13 119 
3 119 125 70 
3 69 119 70 
3 70 125 77 
3 70 73 69 
3 77 74 70 
3 73 75 71 
3 73 70 74 
3 73 98 75 
3 64 73 74 
3 82 80 100 
3 107 82 100 
3 99 80 82 
3 84 82 107 
3 99 82 84 
3 106 84 107 
3 96 100 80 
3 104 99 84 
3 96 114 100 
3 104 84 110 
3 93 80 99 
3 100 114 74 
3 100 74 107 
3 104 101 99 
3 84 106 66 
3 99 101 111 
3 107 74 77 
3 84 66 110 
3 99 111 93 
3 107 77 106 
3 66 91 110 
3 66 106 97 
3 95 97 106 
3 104 110 109 
3 101 104 109 
3 53 66 97 
3 106 77 83 
3 66 53 89 
3 74 114 64 
3 108 110 91 
3 106 83 95 
3 102 101 109 
3 89 91 66 
3 109 110 108 
3 83 77 125 
3 108 91 89 
3 88 53 97 
3 102 46 101 
3 89 53 40 
3 59 53 88 
3 83 86 95 
3 97 95 8 
3 60 95 86 
3 60 8 95 
3 8 88 97 
3 30 60 86 
3 8 60 103 
3 103 105 8 
3 105 103 57 
3 103 60 85 
3 65 85 60 
3 10 57 103 
3 76 105 57 
3 103 85 10 
3 57 10 67 
3 57 67 81 
3 76 57 81 
3 10 25 67 
3 105 76 129 
3 85 25 10 
3 0 129 76 
3 76 81 0 
3 56 81 61 
3 0 81 56 
3 58 92 59 
3 92 53 59 
3 92 58 63 
3 92 50 40 
3 92 40 53 
3 50 92 63 
3 63 58 24 
3 127 5 88 
3 16 63 24 
3 16 51 63 
3 63 51 50 
3 50 89 40 
3 90 50 51 
3 105 88 8 
3 105 127 88 
3 41 51 16 
3 41 16 32 
3 127 128 130 
3 50 87 89 
3 87 50 90 
3 67 127 105 
3 87 108 89 
3 67 79 127 
3 49 90 51 
3 41 49 51 
3 32 37 41 
3 87 109 108 
3 109 87 102 
3 38 37 32 
3 41 37 6 
3 41 6 49 
3 49 87 90 
3 49 48 87 
3 31 128 127 
3 48 49 43 
3 87 48 102 
3 49 6 47 
3 44 48 43 
3 33 47 6 
3 117 6 37 
3 43 49 47 
3 46 102 48 
3 37 28 117 
3 33 6 117 
3 48 42 46 
3 44 42 48 
3 33 115 47 
3 44 43 115 
3 43 47 115 
3 46 111 101 
3 33 117 115 
3 113 117 118 
3 115 117 113 
3 44 115 42 
3 42 111 46 
3 42 115 113 
3 79 67 55 
3 62 79 55 
3 55 67 25 
3 67 61 81 
3 20 62 55 
3 79 62 11 
3 61 67 36 
3 12 20 55 
3 12 55 25 
3 79 11 78 
3 61 36 56 
3 78 31 79 
3 56 36 52 
3 98 126 75 
3 126 71 75 
3 71 126 121 
3 71 69 73 
3 121 9 71 
3 69 71 15 
3 121 2 9 
3 71 9 15 
3 15 13 69 
3 9 2 1 
3 120 2 121 
3 9 1 15 
3 13 15 17 
3 1 18 15 
3 17 15 18 
3 2 120 1 
3 18 1 14 
3 17 23 13 
3 120 4 1 
3 22 18 21 
3 14 21 18 
3 17 54 23 
3 1 4 3 
3 3 14 1 
3 35 13 23 
3 17 18 22 
3 27 4 120 
3 54 17 7 
3 26 23 5 
3 22 7 17 
3 23 54 5 
3 34 3 4 
3 4 27 28 
3 19 21 14 
3 54 7 58 
3 28 34 4 
3 26 35 23 
3 26 39 35 
3 3 34 19 
3 19 14 3 
3 59 5 54 
3 22 21 19 
3 54 58 59 
3 37 34 28 
3 27 117 28 
3 88 5 59 
3 5 130 26 
3 39 26 45 
3 130 45 26 
3 38 19 34 
3 24 7 22 
3 24 22 19 
3 45 12 39 
3 58 7 24 
3 127 130 5 
3 12 45 20 
3 38 34 37 
3 24 19 16 
3 45 130 20 
3 32 19 38 
3 32 16 19 
3 20 130 62 
3 128 62 130 
3 29 62 128 
3 29 11 62 
3 128 31 29 
3 31 78 29 
3 29 78 11 
3 129 52 36 
3 52 129 0 
3 36 67 105 
3 129 36 105 
3 93 112 96 
3 96 80 93 
3 98 114 96 
3 114 98 64 
3 73 64 98 
3 124 116 122 
3 56 52 0 
3 127 79 31 
3 118 117 27 
3 27 120 118 
3 111 112 93 
3 111 42 122 
3 122 112 111 
3 118 124 122 
3 126 98 121 
3 121 98 96 
