ply
format ascii 1.0
comment Three separate triangles with no overlap
element vertex 9
property float x
property float y
property float z
property float nx
property float ny
property float nz
element face 3
property list uchar int vertex_indices
end_header
-1.8 -0.5 10.0 0.0 -0.447 0.894
-0.8 -0.5 10.0 0.0 -0.447 0.894
-1.3  1.0 10.8 0.0 -0.447 0.894
-0.4 -0.5 11.0 0.447 0.0 0.894
 0.4 -0.5 11.5 0.447 0.0 0.894
 0.0  0.5 11.2 0.447 0.0 0.894
 0.8  0.0 12.0 0.0 0.0 1.0
 1.5  0.0 12.0 0.0 0.0 1.0
 1.15 0.6 12.0 0.0 0.0 1.0
3 0 1 2
3 3 4 5
3 6 7 8